<mxfile host="app.diagrams.net" agent="Mozilla/5.0 (Windows NT 10.0; Win64; x64) AppleWebKit/537.36 (KHTML, like Gecko) Chrome/141.0.0.0 Safari/537.36 Edg/141.0.0.0" version="28.2.7">
  <diagram id="C5RBs43oDa-KdzZeNtuy" name="Page-1">
    <mxGraphModel dx="1406" dy="698" grid="1" gridSize="10" guides="1" tooltips="1" connect="1" arrows="1" fold="1" page="1" pageScale="1" pageWidth="827" pageHeight="1169" math="0" shadow="0">
      <root>
        <mxCell id="WIyWlLk6GJQsqaUBKTNV-0" />
        <mxCell id="WIyWlLk6GJQsqaUBKTNV-1" parent="WIyWlLk6GJQsqaUBKTNV-0" />
        <mxCell id="e1IODe29PS1Miq6CeZyZ-37" value="&lt;font style=&quot;font-size: 14px;&quot;&gt;&amp;nbsp;Supuesto 9:&amp;nbsp;&lt;/font&gt;&lt;div&gt;&lt;span style=&quot;font-size: 14px;&quot;&gt;Los pedidos para retirar en el local se registrarán en un documento que ira&lt;/span&gt;&lt;br style=&quot;font-size: 14px;&quot;&gt;&lt;span style=&quot;font-size: 14px;&quot;&gt;actualizándose a medida que lleguen más pedidos.&lt;/span&gt;&lt;/div&gt;" style="html=1;whiteSpace=wrap;fillColor=#dae8fc;strokeColor=#6c8ebf;" vertex="1" parent="WIyWlLk6GJQsqaUBKTNV-1">
          <mxGeometry x="872" y="720" width="268" height="112" as="geometry" />
        </mxCell>
        <mxCell id="e1IODe29PS1Miq6CeZyZ-59" value="ICRUD&amp;lt;E&amp;gt;" style="swimlane;fontStyle=0;childLayout=stackLayout;horizontal=1;startSize=26;fillColor=none;horizontalStack=0;resizeParent=1;resizeParentMax=0;resizeLast=0;collapsible=1;marginBottom=0;whiteSpace=wrap;html=1;" vertex="1" parent="WIyWlLk6GJQsqaUBKTNV-1">
          <mxGeometry x="575" y="310" width="220" height="130" as="geometry" />
        </mxCell>
        <mxCell id="e1IODe29PS1Miq6CeZyZ-60" value="add(input): Response" style="label;fontStyle=0;strokeColor=none;fillColor=none;align=left;verticalAlign=top;overflow=hidden;spacingLeft=28;spacingRight=4;rotatable=0;points=[[0,0.5],[1,0.5]];portConstraint=eastwest;imageWidth=16;imageHeight=16;whiteSpace=wrap;html=1;image=img/clipart/Gear_128x128.png" vertex="1" parent="e1IODe29PS1Miq6CeZyZ-59">
          <mxGeometry y="26" width="220" height="26" as="geometry" />
        </mxCell>
        <mxCell id="e1IODe29PS1Miq6CeZyZ-61" value="update(key, input): Response" style="label;fontStyle=0;strokeColor=none;fillColor=none;align=left;verticalAlign=top;overflow=hidden;spacingLeft=28;spacingRight=4;rotatable=0;points=[[0,0.5],[1,0.5]];portConstraint=eastwest;imageWidth=16;imageHeight=16;whiteSpace=wrap;html=1;image=img/clipart/Gear_128x128.png" vertex="1" parent="e1IODe29PS1Miq6CeZyZ-59">
          <mxGeometry y="52" width="220" height="26" as="geometry" />
        </mxCell>
        <mxCell id="e1IODe29PS1Miq6CeZyZ-62" value="delete(key): Response" style="label;fontStyle=0;strokeColor=none;fillColor=none;align=left;verticalAlign=top;overflow=hidden;spacingLeft=28;spacingRight=4;rotatable=0;points=[[0,0.5],[1,0.5]];portConstraint=eastwest;imageWidth=16;imageHeight=16;whiteSpace=wrap;html=1;image=img/clipart/Gear_128x128.png" vertex="1" parent="e1IODe29PS1Miq6CeZyZ-59">
          <mxGeometry y="78" width="220" height="26" as="geometry" />
        </mxCell>
        <mxCell id="e1IODe29PS1Miq6CeZyZ-63" value="query(key): Response" style="label;fontStyle=0;strokeColor=none;fillColor=none;align=left;verticalAlign=top;overflow=hidden;spacingLeft=28;spacingRight=4;rotatable=0;points=[[0,0.5],[1,0.5]];portConstraint=eastwest;imageWidth=16;imageHeight=16;whiteSpace=wrap;html=1;image=img/clipart/Gear_128x128.png" vertex="1" parent="e1IODe29PS1Miq6CeZyZ-59">
          <mxGeometry y="104" width="220" height="26" as="geometry" />
        </mxCell>
        <mxCell id="e1IODe29PS1Miq6CeZyZ-64" value="«interface»&lt;br&gt;&lt;b&gt;input&lt;/b&gt;" style="html=1;whiteSpace=wrap;" vertex="1" parent="WIyWlLk6GJQsqaUBKTNV-1">
          <mxGeometry x="545" y="490" width="110" height="50" as="geometry" />
        </mxCell>
        <mxCell id="e1IODe29PS1Miq6CeZyZ-65" value="Use" style="endArrow=open;endSize=12;dashed=1;html=1;rounded=0;exitX=0.494;exitY=1.108;exitDx=0;exitDy=0;exitPerimeter=0;" edge="1" parent="WIyWlLk6GJQsqaUBKTNV-1" source="e1IODe29PS1Miq6CeZyZ-63" target="e1IODe29PS1Miq6CeZyZ-64">
          <mxGeometry width="160" relative="1" as="geometry">
            <mxPoint x="725" y="540" as="sourcePoint" />
            <mxPoint x="645" y="530" as="targetPoint" />
          </mxGeometry>
        </mxCell>
        <mxCell id="e1IODe29PS1Miq6CeZyZ-66" value="Usuarioinput" style="swimlane;fontStyle=2;align=center;verticalAlign=top;childLayout=stackLayout;horizontal=1;startSize=26;horizontalStack=0;resizeParent=1;resizeLast=0;collapsible=1;marginBottom=0;rounded=0;shadow=0;strokeWidth=1;" vertex="1" parent="WIyWlLk6GJQsqaUBKTNV-1">
          <mxGeometry x="530" y="590" width="140" height="80" as="geometry">
            <mxRectangle x="230" y="140" width="160" height="26" as="alternateBounds" />
          </mxGeometry>
        </mxCell>
        <mxCell id="e1IODe29PS1Miq6CeZyZ-67" value="+ email: str" style="text;strokeColor=none;fillColor=none;align=left;verticalAlign=top;spacingLeft=4;spacingRight=4;overflow=hidden;rotatable=0;points=[[0,0.5],[1,0.5]];portConstraint=eastwest;whiteSpace=wrap;html=1;" vertex="1" parent="e1IODe29PS1Miq6CeZyZ-66">
          <mxGeometry y="26" width="140" height="26" as="geometry" />
        </mxCell>
        <mxCell id="e1IODe29PS1Miq6CeZyZ-68" value="+ pass: str" style="text;strokeColor=none;fillColor=none;align=left;verticalAlign=top;spacingLeft=4;spacingRight=4;overflow=hidden;rotatable=0;points=[[0,0.5],[1,0.5]];portConstraint=eastwest;whiteSpace=wrap;html=1;" vertex="1" parent="e1IODe29PS1Miq6CeZyZ-66">
          <mxGeometry y="52" width="140" height="26" as="geometry" />
        </mxCell>
        <mxCell id="e1IODe29PS1Miq6CeZyZ-69" value="Extends" style="endArrow=block;endSize=16;endFill=0;html=1;rounded=0;exitX=0.5;exitY=0;exitDx=0;exitDy=0;entryX=0.5;entryY=1;entryDx=0;entryDy=0;" edge="1" parent="WIyWlLk6GJQsqaUBKTNV-1" source="e1IODe29PS1Miq6CeZyZ-66" target="e1IODe29PS1Miq6CeZyZ-64">
          <mxGeometry width="160" relative="1" as="geometry">
            <mxPoint x="775" y="540" as="sourcePoint" />
            <mxPoint x="935" y="540" as="targetPoint" />
          </mxGeometry>
        </mxCell>
        <mxCell id="e1IODe29PS1Miq6CeZyZ-70" value="Response" style="swimlane;fontStyle=2;align=center;verticalAlign=top;childLayout=stackLayout;horizontal=1;startSize=26;horizontalStack=0;resizeParent=1;resizeLast=0;collapsible=1;marginBottom=0;rounded=0;shadow=0;strokeWidth=1;" vertex="1" parent="WIyWlLk6GJQsqaUBKTNV-1">
          <mxGeometry x="705" y="490" width="130" height="78" as="geometry">
            <mxRectangle x="230" y="140" width="160" height="26" as="alternateBounds" />
          </mxGeometry>
        </mxCell>
        <mxCell id="e1IODe29PS1Miq6CeZyZ-71" value="+ status: HtttpCde" style="text;strokeColor=none;fillColor=none;align=left;verticalAlign=top;spacingLeft=4;spacingRight=4;overflow=hidden;rotatable=0;points=[[0,0.5],[1,0.5]];portConstraint=eastwest;whiteSpace=wrap;html=1;" vertex="1" parent="e1IODe29PS1Miq6CeZyZ-70">
          <mxGeometry y="26" width="130" height="26" as="geometry" />
        </mxCell>
        <mxCell id="e1IODe29PS1Miq6CeZyZ-72" value="+ body: Object" style="text;strokeColor=none;fillColor=none;align=left;verticalAlign=top;spacingLeft=4;spacingRight=4;overflow=hidden;rotatable=0;points=[[0,0.5],[1,0.5]];portConstraint=eastwest;whiteSpace=wrap;html=1;" vertex="1" parent="e1IODe29PS1Miq6CeZyZ-70">
          <mxGeometry y="52" width="130" height="26" as="geometry" />
        </mxCell>
        <mxCell id="e1IODe29PS1Miq6CeZyZ-73" value="Use" style="endArrow=open;endSize=12;dashed=1;html=1;rounded=0;entryX=0.5;entryY=0;entryDx=0;entryDy=0;exitX=0.487;exitY=1.077;exitDx=0;exitDy=0;exitPerimeter=0;" edge="1" parent="WIyWlLk6GJQsqaUBKTNV-1" source="e1IODe29PS1Miq6CeZyZ-63" target="e1IODe29PS1Miq6CeZyZ-70">
          <mxGeometry width="160" relative="1" as="geometry">
            <mxPoint x="685" y="450" as="sourcePoint" />
            <mxPoint x="665" y="497" as="targetPoint" />
          </mxGeometry>
        </mxCell>
        <mxCell id="e1IODe29PS1Miq6CeZyZ-74" value="HttpCode" style="html=1;whiteSpace=wrap;" vertex="1" parent="WIyWlLk6GJQsqaUBKTNV-1">
          <mxGeometry x="715" y="614" width="110" height="50" as="geometry" />
        </mxCell>
        <mxCell id="e1IODe29PS1Miq6CeZyZ-75" value="Use" style="endArrow=open;endSize=12;dashed=1;html=1;rounded=0;exitX=0.477;exitY=0.985;exitDx=0;exitDy=0;exitPerimeter=0;" edge="1" parent="WIyWlLk6GJQsqaUBKTNV-1" source="e1IODe29PS1Miq6CeZyZ-72" target="e1IODe29PS1Miq6CeZyZ-74">
          <mxGeometry width="160" relative="1" as="geometry">
            <mxPoint x="1000" y="570" as="sourcePoint" />
            <mxPoint x="945" y="617" as="targetPoint" />
          </mxGeometry>
        </mxCell>
        <mxCell id="e1IODe29PS1Miq6CeZyZ-76" value="«interface»&lt;br&gt;&lt;b&gt;ICRUD&lt;/b&gt;" style="html=1;whiteSpace=wrap;" vertex="1" parent="WIyWlLk6GJQsqaUBKTNV-1">
          <mxGeometry x="1350" y="330" width="110" height="50" as="geometry" />
        </mxCell>
        <mxCell id="e1IODe29PS1Miq6CeZyZ-77" value="Extends" style="endArrow=block;endSize=16;endFill=0;html=1;rounded=0;exitX=0.5;exitY=0;exitDx=0;exitDy=0;entryX=0.196;entryY=1.008;entryDx=0;entryDy=0;entryPerimeter=0;" edge="1" parent="WIyWlLk6GJQsqaUBKTNV-1" source="e1IODe29PS1Miq6CeZyZ-89" target="e1IODe29PS1Miq6CeZyZ-76">
          <mxGeometry width="160" relative="1" as="geometry">
            <mxPoint x="1082.5" y="490" as="sourcePoint" />
            <mxPoint x="995" y="520" as="targetPoint" />
            <Array as="points" />
          </mxGeometry>
        </mxCell>
        <mxCell id="e1IODe29PS1Miq6CeZyZ-78" value="Use" style="endArrow=open;endSize=12;dashed=1;html=1;rounded=0;entryX=1;entryY=0.5;entryDx=0;entryDy=0;exitX=0;exitY=0.5;exitDx=0;exitDy=0;" edge="1" parent="WIyWlLk6GJQsqaUBKTNV-1" target="e1IODe29PS1Miq6CeZyZ-71">
          <mxGeometry width="160" relative="1" as="geometry">
            <mxPoint x="900" y="534" as="sourcePoint" />
            <mxPoint x="993" y="618" as="targetPoint" />
          </mxGeometry>
        </mxCell>
        <mxCell id="e1IODe29PS1Miq6CeZyZ-79" value="200: OK&lt;div&gt;400: Not Allowed&lt;/div&gt;&lt;div&gt;&lt;div&gt;404: Not Found&amp;nbsp;&lt;/div&gt;&lt;/div&gt;" style="html=1;whiteSpace=wrap;dashed=1;" vertex="1" parent="WIyWlLk6GJQsqaUBKTNV-1">
          <mxGeometry x="715" y="678" width="120" height="60" as="geometry" />
        </mxCell>
        <mxCell id="e1IODe29PS1Miq6CeZyZ-80" value="Logger&lt;A&gt;" style="swimlane;fontStyle=2;align=center;verticalAlign=top;childLayout=stackLayout;horizontal=1;startSize=26;horizontalStack=0;resizeParent=1;resizeLast=0;collapsible=1;marginBottom=0;rounded=0;shadow=0;strokeWidth=1;" vertex="1" parent="WIyWlLk6GJQsqaUBKTNV-1">
          <mxGeometry x="872" y="310" width="130" height="104" as="geometry">
            <mxRectangle x="230" y="140" width="160" height="26" as="alternateBounds" />
          </mxGeometry>
        </mxCell>
        <mxCell id="e1IODe29PS1Miq6CeZyZ-81" value="+ fecha: timestamp" style="text;strokeColor=none;fillColor=none;align=left;verticalAlign=top;spacingLeft=4;spacingRight=4;overflow=hidden;rotatable=0;points=[[0,0.5],[1,0.5]];portConstraint=eastwest;whiteSpace=wrap;html=1;" vertex="1" parent="e1IODe29PS1Miq6CeZyZ-80">
          <mxGeometry y="26" width="130" height="26" as="geometry" />
        </mxCell>
        <mxCell id="e1IODe29PS1Miq6CeZyZ-82" value="+ entity: A" style="text;strokeColor=none;fillColor=none;align=left;verticalAlign=top;spacingLeft=4;spacingRight=4;overflow=hidden;rotatable=0;points=[[0,0.5],[1,0.5]];portConstraint=eastwest;whiteSpace=wrap;html=1;" vertex="1" parent="e1IODe29PS1Miq6CeZyZ-80">
          <mxGeometry y="52" width="130" height="26" as="geometry" />
        </mxCell>
        <mxCell id="e1IODe29PS1Miq6CeZyZ-83" value="+ content: Object" style="text;strokeColor=none;fillColor=none;align=left;verticalAlign=top;spacingLeft=4;spacingRight=4;overflow=hidden;rotatable=0;points=[[0,0.5],[1,0.5]];portConstraint=eastwest;whiteSpace=wrap;html=1;" vertex="1" parent="e1IODe29PS1Miq6CeZyZ-80">
          <mxGeometry y="78" width="130" height="26" as="geometry" />
        </mxCell>
        <mxCell id="e1IODe29PS1Miq6CeZyZ-84" value="Extends" style="endArrow=block;endSize=16;endFill=0;html=1;rounded=0;exitX=0;exitY=0.5;exitDx=0;exitDy=0;" edge="1" parent="WIyWlLk6GJQsqaUBKTNV-1" source="e1IODe29PS1Miq6CeZyZ-82">
          <mxGeometry width="160" relative="1" as="geometry">
            <mxPoint x="815" y="554" as="sourcePoint" />
            <mxPoint x="795" y="375" as="targetPoint" />
          </mxGeometry>
        </mxCell>
        <mxCell id="e1IODe29PS1Miq6CeZyZ-86" value="ICRUDA&amp;lt;R&amp;gt;" style="swimlane;fontStyle=0;childLayout=stackLayout;horizontal=1;startSize=26;fillColor=none;horizontalStack=0;resizeParent=1;resizeParentMax=0;resizeLast=0;collapsible=1;marginBottom=0;whiteSpace=wrap;html=1;" vertex="1" parent="WIyWlLk6GJQsqaUBKTNV-1">
          <mxGeometry x="1350" y="710" width="120" height="52" as="geometry" />
        </mxCell>
        <mxCell id="e1IODe29PS1Miq6CeZyZ-87" value="+ entity: R" style="text;strokeColor=none;fillColor=none;align=left;verticalAlign=top;spacingLeft=4;spacingRight=4;overflow=hidden;rotatable=0;points=[[0,0.5],[1,0.5]];portConstraint=eastwest;whiteSpace=wrap;html=1;" vertex="1" parent="e1IODe29PS1Miq6CeZyZ-86">
          <mxGeometry y="26" width="120" height="26" as="geometry" />
        </mxCell>
        <mxCell id="e1IODe29PS1Miq6CeZyZ-88" value="" style="endArrow=block;dashed=1;endFill=0;endSize=12;html=1;rounded=0;fontSize=12;curved=1;entryX=0.25;entryY=0;entryDx=0;entryDy=0;exitX=0.527;exitY=1.076;exitDx=0;exitDy=0;exitPerimeter=0;" edge="1" parent="WIyWlLk6GJQsqaUBKTNV-1" source="e1IODe29PS1Miq6CeZyZ-93" target="e1IODe29PS1Miq6CeZyZ-86">
          <mxGeometry width="160" relative="1" as="geometry">
            <mxPoint x="1280" y="610" as="sourcePoint" />
            <mxPoint x="1330" y="410" as="targetPoint" />
          </mxGeometry>
        </mxCell>
        <mxCell id="e1IODe29PS1Miq6CeZyZ-89" value="Pedido&lt;Usuario&gt;" style="swimlane;fontStyle=2;align=center;verticalAlign=top;childLayout=stackLayout;horizontal=1;startSize=26;horizontalStack=0;resizeParent=1;resizeLast=0;collapsible=1;marginBottom=0;rounded=0;shadow=0;strokeWidth=1;" vertex="1" parent="WIyWlLk6GJQsqaUBKTNV-1">
          <mxGeometry x="1158" y="468" width="227.5" height="130" as="geometry">
            <mxRectangle x="230" y="140" width="160" height="26" as="alternateBounds" />
          </mxGeometry>
        </mxCell>
        <mxCell id="e1IODe29PS1Miq6CeZyZ-90" value="+ idProducto: str" style="text;strokeColor=none;fillColor=none;align=left;verticalAlign=top;spacingLeft=4;spacingRight=4;overflow=hidden;rotatable=0;points=[[0,0.5],[1,0.5]];portConstraint=eastwest;whiteSpace=wrap;html=1;" vertex="1" parent="e1IODe29PS1Miq6CeZyZ-89">
          <mxGeometry y="26" width="227.5" height="26" as="geometry" />
        </mxCell>
        <mxCell id="e1IODe29PS1Miq6CeZyZ-91" value="+ precio: int" style="text;strokeColor=none;fillColor=none;align=left;verticalAlign=top;spacingLeft=4;spacingRight=4;overflow=hidden;rotatable=0;points=[[0,0.5],[1,0.5]];portConstraint=eastwest;whiteSpace=wrap;html=1;" vertex="1" parent="e1IODe29PS1Miq6CeZyZ-89">
          <mxGeometry y="52" width="227.5" height="28" as="geometry" />
        </mxCell>
        <mxCell id="e1IODe29PS1Miq6CeZyZ-92" value="" style="line;html=1;strokeWidth=1;align=left;verticalAlign=middle;spacingTop=-1;spacingLeft=3;spacingRight=3;rotatable=0;labelPosition=right;points=[];portConstraint=eastwest;" vertex="1" parent="e1IODe29PS1Miq6CeZyZ-89">
          <mxGeometry y="80" width="227.5" height="8" as="geometry" />
        </mxCell>
        <mxCell id="e1IODe29PS1Miq6CeZyZ-93" value="+ AgregarProducto(idProducto, monto): Response" style="text;strokeColor=none;fillColor=none;align=left;verticalAlign=top;spacingLeft=4;spacingRight=4;overflow=hidden;rotatable=0;points=[[0,0.5],[1,0.5]];portConstraint=eastwest;whiteSpace=wrap;html=1;" vertex="1" parent="e1IODe29PS1Miq6CeZyZ-89">
          <mxGeometry y="88" width="227.5" height="42" as="geometry" />
        </mxCell>
        <mxCell id="e1IODe29PS1Miq6CeZyZ-94" value="Producto&lt;Usuario&gt;" style="swimlane;fontStyle=2;align=center;verticalAlign=top;childLayout=stackLayout;horizontal=1;startSize=26;horizontalStack=0;resizeParent=1;resizeLast=0;collapsible=1;marginBottom=0;rounded=0;shadow=0;strokeWidth=1;" vertex="1" parent="WIyWlLk6GJQsqaUBKTNV-1">
          <mxGeometry x="1450" y="468" width="160" height="110" as="geometry">
            <mxRectangle x="230" y="140" width="160" height="26" as="alternateBounds" />
          </mxGeometry>
        </mxCell>
        <mxCell id="e1IODe29PS1Miq6CeZyZ-95" value="+ nombre: str" style="text;strokeColor=none;fillColor=none;align=left;verticalAlign=top;spacingLeft=4;spacingRight=4;overflow=hidden;rotatable=0;points=[[0,0.5],[1,0.5]];portConstraint=eastwest;whiteSpace=wrap;html=1;" vertex="1" parent="e1IODe29PS1Miq6CeZyZ-94">
          <mxGeometry y="26" width="160" height="26" as="geometry" />
        </mxCell>
        <mxCell id="e1IODe29PS1Miq6CeZyZ-96" value="+ precio: int" style="text;strokeColor=none;fillColor=none;align=left;verticalAlign=top;spacingLeft=4;spacingRight=4;overflow=hidden;rotatable=0;points=[[0,0.5],[1,0.5]];portConstraint=eastwest;whiteSpace=wrap;html=1;" vertex="1" parent="e1IODe29PS1Miq6CeZyZ-94">
          <mxGeometry y="52" width="160" height="28" as="geometry" />
        </mxCell>
        <mxCell id="e1IODe29PS1Miq6CeZyZ-97" value="+ categoria: str" style="text;strokeColor=none;fillColor=none;align=left;verticalAlign=top;spacingLeft=4;spacingRight=4;overflow=hidden;rotatable=0;points=[[0,0.5],[1,0.5]];portConstraint=eastwest;whiteSpace=wrap;html=1;" vertex="1" parent="e1IODe29PS1Miq6CeZyZ-94">
          <mxGeometry y="80" width="160" height="26" as="geometry" />
        </mxCell>
        <mxCell id="e1IODe29PS1Miq6CeZyZ-98" value="Precio&lt;Usuario&gt;" style="swimlane;fontStyle=2;align=center;verticalAlign=top;childLayout=stackLayout;horizontal=1;startSize=26;horizontalStack=0;resizeParent=1;resizeLast=0;collapsible=1;marginBottom=0;rounded=0;shadow=0;strokeWidth=1;" vertex="1" parent="WIyWlLk6GJQsqaUBKTNV-1">
          <mxGeometry x="1670" y="468" width="160" height="110" as="geometry">
            <mxRectangle x="230" y="140" width="160" height="26" as="alternateBounds" />
          </mxGeometry>
        </mxCell>
        <mxCell id="e1IODe29PS1Miq6CeZyZ-99" value="+ fecha: timestamp" style="text;strokeColor=none;fillColor=none;align=left;verticalAlign=top;spacingLeft=4;spacingRight=4;overflow=hidden;rotatable=0;points=[[0,0.5],[1,0.5]];portConstraint=eastwest;whiteSpace=wrap;html=1;" vertex="1" parent="e1IODe29PS1Miq6CeZyZ-98">
          <mxGeometry y="26" width="160" height="26" as="geometry" />
        </mxCell>
        <mxCell id="e1IODe29PS1Miq6CeZyZ-100" value="+ precio: int" style="text;strokeColor=none;fillColor=none;align=left;verticalAlign=top;spacingLeft=4;spacingRight=4;overflow=hidden;rotatable=0;points=[[0,0.5],[1,0.5]];portConstraint=eastwest;whiteSpace=wrap;html=1;" vertex="1" parent="e1IODe29PS1Miq6CeZyZ-98">
          <mxGeometry y="52" width="160" height="28" as="geometry" />
        </mxCell>
        <mxCell id="e1IODe29PS1Miq6CeZyZ-101" value="+ idProducto: producto" style="text;strokeColor=none;fillColor=none;align=left;verticalAlign=top;spacingLeft=4;spacingRight=4;overflow=hidden;rotatable=0;points=[[0,0.5],[1,0.5]];portConstraint=eastwest;whiteSpace=wrap;html=1;" vertex="1" parent="e1IODe29PS1Miq6CeZyZ-98">
          <mxGeometry y="80" width="160" height="26" as="geometry" />
        </mxCell>
        <mxCell id="e1IODe29PS1Miq6CeZyZ-102" value="" style="endArrow=diamondThin;endFill=1;endSize=24;html=1;rounded=0;entryX=1;entryY=0.5;entryDx=0;entryDy=0;exitX=0;exitY=0.5;exitDx=0;exitDy=0;" edge="1" parent="WIyWlLk6GJQsqaUBKTNV-1" source="e1IODe29PS1Miq6CeZyZ-96" target="e1IODe29PS1Miq6CeZyZ-91">
          <mxGeometry width="160" relative="1" as="geometry">
            <mxPoint x="673" y="1110" as="sourcePoint" />
            <mxPoint x="833" y="1110" as="targetPoint" />
          </mxGeometry>
        </mxCell>
        <mxCell id="e1IODe29PS1Miq6CeZyZ-103" value="" style="endArrow=diamondThin;endFill=1;endSize=24;html=1;rounded=0;entryX=1;entryY=0.5;entryDx=0;entryDy=0;exitX=0;exitY=0.5;exitDx=0;exitDy=0;" edge="1" parent="WIyWlLk6GJQsqaUBKTNV-1" source="e1IODe29PS1Miq6CeZyZ-100" target="e1IODe29PS1Miq6CeZyZ-96">
          <mxGeometry width="160" relative="1" as="geometry">
            <mxPoint x="983" y="1090" as="sourcePoint" />
            <mxPoint x="903" y="1090" as="targetPoint" />
          </mxGeometry>
        </mxCell>
        <mxCell id="e1IODe29PS1Miq6CeZyZ-104" value="" style="endArrow=block;dashed=1;endFill=0;endSize=12;html=1;rounded=0;fontSize=12;curved=1;entryX=0.75;entryY=0;entryDx=0;entryDy=0;exitX=0.5;exitY=1;exitDx=0;exitDy=0;" edge="1" parent="WIyWlLk6GJQsqaUBKTNV-1" source="e1IODe29PS1Miq6CeZyZ-94" target="e1IODe29PS1Miq6CeZyZ-86">
          <mxGeometry width="160" relative="1" as="geometry">
            <mxPoint x="1250" y="564" as="sourcePoint" />
            <mxPoint x="1458" y="460" as="targetPoint" />
          </mxGeometry>
        </mxCell>
        <mxCell id="e1IODe29PS1Miq6CeZyZ-105" value="" style="endArrow=block;dashed=1;endFill=0;endSize=12;html=1;rounded=0;fontSize=12;curved=1;entryX=1;entryY=0.5;entryDx=0;entryDy=0;exitX=0.5;exitY=1;exitDx=0;exitDy=0;" edge="1" parent="WIyWlLk6GJQsqaUBKTNV-1" source="e1IODe29PS1Miq6CeZyZ-98" target="e1IODe29PS1Miq6CeZyZ-86">
          <mxGeometry width="160" relative="1" as="geometry">
            <mxPoint x="1400" y="524" as="sourcePoint" />
            <mxPoint x="1608" y="420" as="targetPoint" />
          </mxGeometry>
        </mxCell>
        <mxCell id="e1IODe29PS1Miq6CeZyZ-106" value="RegistroPedidos&lt;Usuario&gt;" style="swimlane;fontStyle=2;align=center;verticalAlign=top;childLayout=stackLayout;horizontal=1;startSize=26;horizontalStack=0;resizeParent=1;resizeLast=0;collapsible=1;marginBottom=0;rounded=0;shadow=0;strokeWidth=1;" vertex="1" parent="WIyWlLk6GJQsqaUBKTNV-1">
          <mxGeometry x="910" y="450" width="190" height="240" as="geometry">
            <mxRectangle x="230" y="140" width="160" height="26" as="alternateBounds" />
          </mxGeometry>
        </mxCell>
        <mxCell id="e1IODe29PS1Miq6CeZyZ-107" value="+ idPedido: str" style="text;strokeColor=none;fillColor=none;align=left;verticalAlign=top;spacingLeft=4;spacingRight=4;overflow=hidden;rotatable=0;points=[[0,0.5],[1,0.5]];portConstraint=eastwest;whiteSpace=wrap;html=1;" vertex="1" parent="e1IODe29PS1Miq6CeZyZ-106">
          <mxGeometry y="26" width="190" height="26" as="geometry" />
        </mxCell>
        <mxCell id="e1IODe29PS1Miq6CeZyZ-121" value="+ fecha: dateTime" style="text;strokeColor=none;fillColor=none;align=left;verticalAlign=top;spacingLeft=4;spacingRight=4;overflow=hidden;rotatable=0;points=[[0,0.5],[1,0.5]];portConstraint=eastwest;whiteSpace=wrap;html=1;" vertex="1" parent="e1IODe29PS1Miq6CeZyZ-106">
          <mxGeometry y="52" width="190" height="26" as="geometry" />
        </mxCell>
        <mxCell id="e1IODe29PS1Miq6CeZyZ-123" value="+ confirmado: str" style="text;strokeColor=none;fillColor=none;align=left;verticalAlign=top;spacingLeft=4;spacingRight=4;overflow=hidden;rotatable=0;points=[[0,0.5],[1,0.5]];portConstraint=eastwest;whiteSpace=wrap;html=1;" vertex="1" parent="e1IODe29PS1Miq6CeZyZ-106">
          <mxGeometry y="78" width="190" height="30" as="geometry" />
        </mxCell>
        <mxCell id="e1IODe29PS1Miq6CeZyZ-122" value="+ estado: str" style="text;strokeColor=none;fillColor=none;align=left;verticalAlign=top;spacingLeft=4;spacingRight=4;overflow=hidden;rotatable=0;points=[[0,0.5],[1,0.5]];portConstraint=eastwest;whiteSpace=wrap;html=1;" vertex="1" parent="e1IODe29PS1Miq6CeZyZ-106">
          <mxGeometry y="108" width="190" height="26" as="geometry" />
        </mxCell>
        <mxCell id="e1IODe29PS1Miq6CeZyZ-116" value="" style="line;html=1;strokeWidth=1;align=left;verticalAlign=middle;spacingTop=-1;spacingLeft=3;spacingRight=3;rotatable=0;labelPosition=right;points=[];portConstraint=eastwest;" vertex="1" parent="e1IODe29PS1Miq6CeZyZ-106">
          <mxGeometry y="134" width="190" height="8" as="geometry" />
        </mxCell>
        <mxCell id="e1IODe29PS1Miq6CeZyZ-118" value="+ AgregarPedido(idPedido, fecha, confirmado, estado): Response" style="text;strokeColor=none;fillColor=none;align=left;verticalAlign=top;spacingLeft=4;spacingRight=4;overflow=hidden;rotatable=0;points=[[0,0.5],[1,0.5]];portConstraint=eastwest;whiteSpace=wrap;html=1;" vertex="1" parent="e1IODe29PS1Miq6CeZyZ-106">
          <mxGeometry y="142" width="190" height="42" as="geometry" />
        </mxCell>
        <mxCell id="e1IODe29PS1Miq6CeZyZ-120" value="+ ActualizarRegistro(idPedido, fecha, confirmado, estado): Response" style="text;strokeColor=none;fillColor=none;align=left;verticalAlign=top;spacingLeft=4;spacingRight=4;overflow=hidden;rotatable=0;points=[[0,0.5],[1,0.5]];portConstraint=eastwest;whiteSpace=wrap;html=1;" vertex="1" parent="e1IODe29PS1Miq6CeZyZ-106">
          <mxGeometry y="184" width="190" height="46" as="geometry" />
        </mxCell>
        <mxCell id="e1IODe29PS1Miq6CeZyZ-111" value="" style="endArrow=diamondThin;endFill=1;endSize=24;html=1;rounded=0;exitX=0;exitY=0.5;exitDx=0;exitDy=0;entryX=1;entryY=0.5;entryDx=0;entryDy=0;" edge="1" parent="WIyWlLk6GJQsqaUBKTNV-1" source="e1IODe29PS1Miq6CeZyZ-91">
          <mxGeometry width="160" relative="1" as="geometry">
            <mxPoint x="1352" y="710" as="sourcePoint" />
            <mxPoint x="1090" y="534" as="targetPoint" />
          </mxGeometry>
        </mxCell>
        <mxCell id="e1IODe29PS1Miq6CeZyZ-112" value="Extends" style="endArrow=block;endSize=16;endFill=0;html=1;rounded=0;exitX=0.5;exitY=0;exitDx=0;exitDy=0;entryX=0;entryY=0.5;entryDx=0;entryDy=0;" edge="1" parent="WIyWlLk6GJQsqaUBKTNV-1" source="e1IODe29PS1Miq6CeZyZ-106" target="e1IODe29PS1Miq6CeZyZ-76">
          <mxGeometry width="160" relative="1" as="geometry">
            <mxPoint x="1190" y="518" as="sourcePoint" />
            <mxPoint x="1214" y="430" as="targetPoint" />
            <Array as="points" />
          </mxGeometry>
        </mxCell>
        <mxCell id="e1IODe29PS1Miq6CeZyZ-113" value="Extends" style="endArrow=block;endSize=16;endFill=0;html=1;rounded=0;exitX=0.5;exitY=0;exitDx=0;exitDy=0;entryX=0.75;entryY=1;entryDx=0;entryDy=0;" edge="1" parent="WIyWlLk6GJQsqaUBKTNV-1" source="e1IODe29PS1Miq6CeZyZ-94" target="e1IODe29PS1Miq6CeZyZ-76">
          <mxGeometry width="160" relative="1" as="geometry">
            <mxPoint x="1470" y="488" as="sourcePoint" />
            <mxPoint x="1400" y="380" as="targetPoint" />
            <Array as="points" />
          </mxGeometry>
        </mxCell>
        <mxCell id="e1IODe29PS1Miq6CeZyZ-114" value="Extends" style="endArrow=block;endSize=16;endFill=0;html=1;rounded=0;exitX=0.5;exitY=0;exitDx=0;exitDy=0;entryX=1;entryY=0.5;entryDx=0;entryDy=0;" edge="1" parent="WIyWlLk6GJQsqaUBKTNV-1" source="e1IODe29PS1Miq6CeZyZ-98" target="e1IODe29PS1Miq6CeZyZ-76">
          <mxGeometry width="160" relative="1" as="geometry">
            <mxPoint x="1580" y="448" as="sourcePoint" />
            <mxPoint x="1713" y="360" as="targetPoint" />
            <Array as="points" />
          </mxGeometry>
        </mxCell>
        <mxCell id="e1IODe29PS1Miq6CeZyZ-115" value="" style="endArrow=block;dashed=1;endFill=0;endSize=12;html=1;rounded=0;fontSize=12;curved=1;entryX=0;entryY=0.5;entryDx=0;entryDy=0;exitX=0.5;exitY=1;exitDx=0;exitDy=0;" edge="1" parent="WIyWlLk6GJQsqaUBKTNV-1" source="e1IODe29PS1Miq6CeZyZ-106" target="e1IODe29PS1Miq6CeZyZ-86">
          <mxGeometry width="160" relative="1" as="geometry">
            <mxPoint x="995" y="582" as="sourcePoint" />
            <mxPoint x="1470" y="958" as="targetPoint" />
          </mxGeometry>
        </mxCell>
        <mxCell id="e1IODe29PS1Miq6CeZyZ-119" value="Use" style="endArrow=open;endSize=12;dashed=1;html=1;rounded=0;exitX=0.5;exitY=0;exitDx=0;exitDy=0;entryX=0.551;entryY=1.031;entryDx=0;entryDy=0;entryPerimeter=0;" edge="1" parent="WIyWlLk6GJQsqaUBKTNV-1" source="e1IODe29PS1Miq6CeZyZ-106" target="e1IODe29PS1Miq6CeZyZ-83">
          <mxGeometry width="160" relative="1" as="geometry">
            <mxPoint x="965" y="925" as="sourcePoint" />
            <mxPoint x="1050" y="430" as="targetPoint" />
            <Array as="points" />
          </mxGeometry>
        </mxCell>
      </root>
    </mxGraphModel>
  </diagram>
</mxfile>
